HIERARCHY
ROOT Hips
{
	OFFSET 0.00000 0.00000 0.00000
	CHANNELS 6 Xposition Yposition Zposition Zrotation Yrotation Xrotation 
	JOINT LHipJoint
	{
		OFFSET 0 0 0
		CHANNELS 3 Zrotation Yrotation Xrotation
		JOINT LeftUpLeg
		{
			OFFSET 1.58161 -1.81893 0.78828
			CHANNELS 3 Zrotation Yrotation Xrotation
			JOINT LeftLeg
			{
				OFFSET 2.53374 -6.96141 0.00000
				CHANNELS 3 Zrotation Yrotation Xrotation
				JOINT LeftFoot
				{
					OFFSET 2.63509 -7.23986 0.00000
					CHANNELS 3 Zrotation Yrotation Xrotation
					JOINT LeftToeBase
					{
						OFFSET 0.14115 -0.38781 2.05350
						CHANNELS 3 Zrotation Yrotation Xrotation
						End Site
						{
							OFFSET 0.00000 -0.00000 1.05543
						}
					}
				}
			}
		}
	}
	JOINT RHipJoint
	{
		OFFSET 0 0 0
		CHANNELS 3 Zrotation Yrotation Xrotation
		JOINT RightUpLeg
		{
			OFFSET -1.11138 -1.81893 0.78828
			CHANNELS 3 Zrotation Yrotation Xrotation
			JOINT RightLeg
			{
				OFFSET -2.58392 -7.09926 0.00000
				CHANNELS 3 Zrotation Yrotation Xrotation
				JOINT RightFoot
				{
					OFFSET -2.66423 -7.31992 0.00000
					CHANNELS 3 Zrotation Yrotation Xrotation
					JOINT RightToeBase
					{
						OFFSET -0.18831 -0.51739 2.12114
						CHANNELS 3 Zrotation Yrotation Xrotation
						End Site
						{
							OFFSET -0.00000 -0.00000 1.09845
						}
					}
				}
			}
		}
	}
	JOINT LowerBack
	{
		OFFSET 0 0 0
		CHANNELS 3 Zrotation Yrotation Xrotation
		JOINT Spine
		{
			OFFSET -0.01511 1.97958 -0.08829
			CHANNELS 3 Zrotation Yrotation Xrotation
			JOINT Spine1
			{
				OFFSET 0.08344 1.97334 -0.04330
				CHANNELS 3 Zrotation Yrotation Xrotation
				JOINT Neck
				{
					OFFSET 0 0 0
					CHANNELS 3 Zrotation Yrotation Xrotation
					JOINT Neck1
					{
						OFFSET 0.00559 1.76246 0.31246
						CHANNELS 3 Zrotation Yrotation Xrotation
						JOINT Head
						{
							OFFSET -0.07011 1.80354 -0.30524
							CHANNELS 3 Zrotation Yrotation Xrotation
							End Site
							{
								OFFSET -0.02385 1.83547 -0.13906
							}
						}
					}
				}
				JOINT LeftShoulder
				{
					OFFSET 0 0 0
					CHANNELS 3 Zrotation Yrotation Xrotation
					JOINT LeftArm
					{
						OFFSET 3.20667 1.30156 -0.60240
						CHANNELS 3 Zrotation Yrotation Xrotation
						JOINT LeftForeArm
						{
							OFFSET 4.95663 -0.00000 0.00000
							CHANNELS 3 Zrotation Yrotation Xrotation
							JOINT LeftHand
							{
								OFFSET 3.38177 -0.00000 0.00000
								CHANNELS 3 Zrotation Yrotation Xrotation
								JOINT LeftFingerBase
								{
									OFFSET 0 0 0
									CHANNELS 3 Zrotation Yrotation Xrotation
									JOINT LeftHandIndex1
									{
										OFFSET 0.66291 -0.00000 0.00000
										CHANNELS 3 Zrotation Yrotation Xrotation
										End Site
										{
											OFFSET 0.53445 -0.00000 0.00000
										}
									}
								}
								JOINT LThumb
								{
									OFFSET 0 0 0
									CHANNELS 3 Zrotation Yrotation Xrotation
									End Site
									{
										OFFSET 0.54261 -0.00000 0.54261
									}
								}
							}
						}
					}
				}
				JOINT RightShoulder
				{
					OFFSET 0 0 0
					CHANNELS 3 Zrotation Yrotation Xrotation
					JOINT RightArm
					{
						OFFSET -3.06877 1.34672 -0.60964
						CHANNELS 3 Zrotation Yrotation Xrotation
						JOINT RightForeArm
						{
							OFFSET -5.08365 -0.00000 0.00000
							CHANNELS 3 Zrotation Yrotation Xrotation
							JOINT RightHand
							{
								OFFSET -3.35984 -0.00000 0.00000
								CHANNELS 3 Zrotation Yrotation Xrotation
								JOINT RightFingerBase
								{
									OFFSET 0 0 0
									CHANNELS 3 Zrotation Yrotation Xrotation
									JOINT RightHandIndex1
									{
										OFFSET -0.82076 -0.00000 0.00000
										CHANNELS 3 Zrotation Yrotation Xrotation
										End Site
										{
											OFFSET -0.66172 -0.00000 0.00000
										}
									}
								}
								JOINT RThumb
								{
									OFFSET 0 0 0
									CHANNELS 3 Zrotation Yrotation Xrotation
									End Site
									{
										OFFSET -0.67182 -0.00000 0.67182
									}
								}
							}
						}
					}
				}
			}
		}
	}
}
MOTION
Frames: 15
Frame Time: .0083333
-10.7091 18.0670 4.5385 -108.0580 87.9479 -88.5940 0.0000 0.0000 0.0000 -9.3188 -6.4905 -30.9395 1.2205 7.0075 19.7376 -0.0765 -8.6844 -4.4767 0.7627 -5.5773 -15.5628 0.0000 0.0000 0.0000 11.5083 6.2160 -30.1351 -1.9000 -8.6546 24.7207 -0.0106 -7.5438 -10.9857 -0.0925 1.9619 -5.4003 -1.0598 1.2980 3.3634 4.0346 1.8023 5.6401 4.7839 0.8468 3.7821 1.9805 -1.4025 -12.1372 -4.5625 1.5006 40.6915 -1.9533 0.9531 16.8190 0.0000 -0.0000 0.0000 -99.5352 -23.4499 81.7743 25.2440 -36.4523 -8.4344 -0.0000 0.0000 -49.5878 19.7496 63.0612 17.7483 -7.1250 0.0000 -0.0000 167.9322 4.8932 11.2522 0.0000 -0.0000 0.0000 92.7284 16.2251 54.9471 -29.1145 40.1222 -10.8344 0.0000 -0.0000 -49.9819 -31.4984 -6.8894 4.2039 7.1250 -0.0000 -0.0000 -4.0559 -38.0167 -0.6987
-10.7101 18.0682 4.5366 -115.2710 87.7881 -95.7690 0.0000 0.0000 0.0000 -9.2471 -6.5606 -30.9520 1.2000 6.9505 19.5689 -0.0916 -8.8920 -4.3205 0.7770 -5.6281 -15.7092 0.0000 0.0000 0.0000 11.6093 6.1099 -30.1379 -1.8974 -8.6490 24.7032 -0.0009 -7.7267 -11.0374 -0.0983 2.0217 -5.5657 -0.8063 1.3408 3.3552 4.0133 1.8624 5.6086 4.6167 0.8881 3.7553 2.0741 -1.4403 -12.1457 -4.5061 1.3993 40.6938 -1.9614 0.9363 16.8154 -0.0000 -0.0000 0.0000 -99.3843 -23.4669 82.0042 25.3107 -36.5198 -8.4741 -0.0000 0.0000 -49.7760 21.8198 63.2999 19.6812 -7.1250 0.0000 -0.0000 168.4635 5.3745 10.6278 -0.0000 -0.0000 0.0000 92.8401 16.2016 54.9006 -29.1137 40.1215 -10.8339 0.0000 -0.0000 -50.2133 -31.8566 -6.7149 4.1557 7.1250 -0.0000 -0.0000 -4.3637 -37.8389 -0.7711
-10.7099 18.0686 4.5347 -123.1620 87.5933 -103.6050 0.0000 0.0000 0.0000 -9.2007 -6.6392 -31.0342 1.1875 6.9154 19.4648 -0.1146 -9.2602 -4.1487 0.7381 -5.4884 -15.3070 0.0000 0.0000 0.0000 11.7281 5.8249 -30.1972 -1.8919 -8.6371 24.6667 0.0114 -7.8594 -10.9632 -0.1389 2.4016 -6.6169 -0.5781 1.3391 3.2969 4.0227 1.8619 5.5710 4.4980 0.8971 3.7545 2.0831 -1.4663 -12.1382 -4.4531 1.3500 40.7195 -1.9469 0.9288 16.8242 -0.0000 -0.0000 0.0000 -99.3444 -23.4713 82.0382 25.2819 -36.4907 -8.4570 -0.0000 0.0000 -49.7694 22.5962 63.0698 20.3574 -7.1250 0.0000 -0.0000 168.7384 5.2594 10.3890 -0.0000 -0.0000 0.0000 92.9007 16.1504 54.9649 -29.1160 40.1236 -10.8354 0.0000 -0.0000 -50.3056 -32.2072 -6.6637 4.1807 7.1250 -0.0000 -0.0000 -4.6647 -37.8041 -0.8285
-10.7101 18.0702 4.5331 -130.4110 87.4359 -110.8410 0.0000 0.0000 0.0000 -9.2561 -6.7092 -31.0738 1.1753 6.8811 19.3637 -0.1361 -9.5873 -3.9912 0.7107 -5.3878 -15.0181 0.0000 0.0000 0.0000 11.7347 5.5617 -30.2067 -1.8900 -8.6330 24.6539 0.0114 -7.8905 -11.0082 -0.1311 2.3339 -6.4293 -0.4265 1.3247 3.2979 4.0041 1.8448 5.5356 4.3917 0.8955 3.7228 2.1489 -1.4721 -12.0871 -4.4522 1.3242 40.6754 -1.9606 0.9309 16.7849 -0.0000 0.0000 0.0000 -99.2734 -23.4509 82.0093 25.2523 -36.4607 -8.4394 -0.0000 0.0000 -49.6437 18.2678 63.3009 16.4308 -7.1250 0.0000 -0.0000 167.4577 4.9621 11.7003 -0.0000 0.0000 0.0000 92.9417 15.9963 54.9888 -29.2363 40.2297 -10.9130 0.0000 -0.0000 -50.3340 -32.2979 -6.6230 4.1699 7.1250 -0.0000 -0.0000 -4.7421 -37.7628 -0.8471
-10.7105 18.0703 4.5347 -134.6550 87.2805 -115.1250 0.0000 0.0000 0.0000 -9.3176 -6.6044 -31.0899 1.1621 6.8435 19.2526 -0.1580 -9.9042 -3.8266 0.6998 -5.3472 -14.9016 0.0000 0.0000 0.0000 11.7443 5.4888 -30.1309 -1.8927 -8.6390 24.6725 0.0121 -8.0097 -11.1674 -0.1083 2.1219 -5.8427 -0.4436 1.3157 3.3620 4.0762 1.8351 5.5367 4.4750 0.8903 3.6864 2.1487 -1.4450 -12.0967 -4.4892 1.3717 40.5990 -1.9670 0.9444 16.7485 -0.0000 -0.0000 0.0000 -99.2250 -23.4800 81.9585 25.2581 -36.4667 -8.4429 -0.0000 0.0000 -49.6569 15.9611 63.0439 14.3021 -7.1250 0.0000 -0.0000 166.8444 4.4979 12.4219 -0.0000 -0.0000 0.0000 92.8523 15.8908 55.0968 -29.4199 40.3909 -11.0318 0.0000 -0.0000 -50.4183 -32.3898 -6.6056 4.1737 7.1250 -0.0000 -0.0000 -4.8209 -37.7489 -0.8629
-10.7101 18.0677 4.5357 -139.7470 87.0927 -120.2230 0.0000 0.0000 0.0000 -9.3821 -6.5957 -31.1129 1.1477 6.8024 19.1314 -0.1793 -10.1797 -3.6423 0.6475 -5.1474 -14.3295 0.0000 0.0000 0.0000 11.7322 5.3730 -30.1113 -1.9002 -8.6551 24.7222 0.0203 -8.2138 -11.2930 -0.1204 2.2369 -6.1610 -0.5208 1.2959 3.3718 4.1910 1.8090 5.5277 4.6388 0.8736 3.6687 2.0373 -1.4432 -12.1068 -4.4983 1.4127 40.5644 -1.9424 0.9444 16.7346 0.0000 -0.0000 0.0000 -99.2571 -23.5130 82.0295 25.2727 -36.4814 -8.4515 -0.0000 0.0000 -49.8383 17.1240 62.7757 15.3213 -7.1250 0.0000 -0.0000 167.2324 4.3441 12.0734 0.0000 -0.0000 0.0000 92.6802 15.8548 55.2354 -29.5303 40.4874 -11.1034 0.0000 -0.0000 -50.5335 -32.5542 -6.6026 4.1983 7.1250 -0.0000 -0.0000 -4.9622 -37.7571 -0.8874
-10.7102 18.0650 4.5351 -144.8290 86.8792 -125.2860 0.0000 0.0000 0.0000 -9.4266 -6.7261 -31.1070 1.1317 6.7565 18.9961 -0.1959 -10.3582 -3.4615 0.5944 -4.9359 -13.7257 0.0000 0.0000 0.0000 11.7410 5.0904 -30.1892 -1.9112 -8.6785 24.7948 0.0234 -8.2707 -11.3117 -0.1376 2.3906 -6.5865 -0.4943 1.3106 3.3516 4.2351 1.8293 5.5042 4.6699 0.8848 3.6534 2.0298 -1.4904 -12.1002 -4.5250 1.3627 40.5534 -1.9600 0.9230 16.7242 -0.0000 0.0000 0.0000 -99.3179 -23.5403 82.1952 25.2396 -36.4479 -8.4318 -0.0000 0.0000 -49.8317 19.9653 62.7372 17.8968 -7.1250 0.0000 -0.0000 168.0655 4.6078 11.1875 -0.0000 0.0000 0.0000 92.6368 15.8475 55.1774 -29.5106 40.4702 -11.0906 0.0000 -0.0000 -50.6197 -32.6677 -6.4855 4.1424 7.1250 -0.0000 -0.0000 -5.0576 -37.6272 -0.9207
-10.7112 18.0630 4.5343 -149.5500 86.7202 -129.9890 0.0000 0.0000 0.0000 -9.5469 -6.8612 -31.0929 1.1166 6.7128 18.8671 -0.2112 -10.5333 -3.3139 0.5928 -4.9293 -13.7070 0.0000 0.0000 0.0000 11.6698 4.8401 -30.2630 -1.9216 -8.7008 24.8636 0.0280 -8.3360 -11.3111 -0.1548 2.5350 -6.9867 -0.5061 1.3340 3.3266 4.2271 1.8604 5.4955 4.6685 0.9000 3.6555 2.1269 -1.5087 -12.1112 -4.5972 1.3388 40.5271 -2.0127 0.9208 16.7116 0.0000 0.0000 0.0000 -99.3342 -23.5971 82.3103 25.1950 -36.4027 -8.4054 -0.0000 0.0000 -49.6706 21.0717 62.8650 18.9264 -7.1250 0.0000 -0.0000 168.3547 4.8643 10.8471 0.0000 0.0000 0.0000 92.6631 15.8629 55.0865 -29.4618 40.4276 -11.0589 0.0000 -0.0000 -50.7012 -32.8176 -6.4284 4.1297 7.1250 -0.0000 -0.0000 -5.1851 -37.5703 -0.9513
-10.7113 18.0610 4.5324 -153.8100 86.6222 -134.2510 0.0000 0.0000 0.0000 -9.7860 -6.8362 -31.1131 1.1055 6.6804 18.7718 -0.2309 -10.8042 -3.1891 0.6140 -5.0149 -13.9510 0.0000 0.0000 0.0000 11.4844 4.7689 -30.2321 -1.9278 -8.7139 24.9045 0.0362 -8.5169 -11.4126 -0.1639 2.6084 -7.1902 -0.5402 1.4063 3.3114 4.1672 1.9561 5.4889 4.6246 0.9473 3.6498 2.2447 -1.5284 -12.0869 -4.5819 1.2704 40.4845 -2.0365 0.9153 16.6773 -0.0000 0.0000 0.0000 -99.2405 -23.6086 82.5497 25.2117 -36.4196 -8.4153 -0.0000 0.0000 -49.6970 21.0069 63.0218 18.8917 -7.1250 0.0000 -0.0000 168.2994 5.0060 10.8690 -0.0000 0.0000 0.0000 92.7009 15.8305 54.9541 -29.5190 40.4775 -11.0960 0.0000 -0.0000 -50.8012 -32.9118 -6.4697 4.1711 7.1250 -0.0000 -0.0000 -5.2669 -37.6257 -0.9592
-10.7100 18.0604 4.5305 -155.4050 86.4357 -135.9230 0.0000 0.0000 0.0000 -9.8686 -6.7114 -31.0902 1.0966 6.6544 18.6955 -0.2534 -11.1228 -3.0764 0.6123 -5.0083 -13.9322 0.0000 0.0000 0.0000 11.4623 4.8048 -30.0640 -1.9304 -8.7197 24.9223 0.0454 -8.7512 -11.5779 -0.1585 2.5653 -7.0707 -0.4162 1.4917 3.3870 4.1504 2.0740 5.4825 4.5330 1.0127 3.5949 2.3462 -1.5535 -12.0613 -4.5219 1.1788 40.4369 -2.0411 0.9033 16.6383 -0.0000 -0.0000 0.0000 -99.1526 -23.5796 82.7542 25.2295 -36.4377 -8.4259 -0.0000 0.0000 -49.9435 21.3230 63.0057 19.1787 -7.1250 0.0000 -0.0000 168.3935 5.0303 10.7723 -0.0000 -0.0000 0.0000 92.7295 15.7470 54.7845 -29.6265 40.5711 -11.1659 0.0000 -0.0000 -50.8962 -33.0458 -6.6159 4.2863 7.1250 -0.0000 -0.0000 -5.3851 -37.8080 -0.9568
-10.7096 18.0614 4.5290 -156.5410 86.1411 -137.1110 0.0000 0.0000 0.0000 -9.8029 -6.7579 -31.0585 1.0888 6.6315 18.6281 -0.2700 -11.3458 -2.9845 0.6041 -4.9752 -13.8378 0.0000 0.0000 0.0000 11.5547 4.7331 -29.9559 -1.9320 -8.7229 24.9324 0.0552 -8.9424 -11.6700 -0.1558 2.5434 -7.0100 -0.2771 1.5025 3.4342 4.2241 2.0930 5.4967 4.5304 1.0279 3.5838 2.3546 -1.5563 -12.1015 -4.5329 1.1682 40.3733 -2.0477 0.8980 16.6131 -0.0000 -0.0000 0.0000 -99.2733 -23.6703 82.7930 25.1662 -36.3734 -8.3883 -0.0000 0.0000 -50.0797 21.6463 63.0950 19.4892 -7.1250 0.0000 -0.0000 168.4641 5.1569 10.6757 -0.0000 -0.0000 0.0000 92.6652 15.7512 54.6921 -29.6559 40.5966 -11.1850 0.0000 -0.0000 -50.8846 -33.0959 -6.8106 4.4199 7.1250 -0.0000 -0.0000 -5.4325 -38.0419 -0.9340
-10.7105 18.0625 4.5275 -158.8300 85.8468 -139.3860 0.0000 0.0000 0.0000 -9.7940 -6.9266 -31.0810 1.0835 6.6158 18.5822 -0.2809 -11.4692 -2.8977 0.5731 -4.8479 -13.4753 0.0000 0.0000 0.0000 11.5981 4.4634 -29.9915 -1.9321 -8.7231 24.9329 0.0536 -8.9413 -11.7010 -0.1458 2.4604 -6.7797 -0.3193 1.4763 3.3671 4.3765 2.0580 5.5316 4.7182 1.0067 3.6553 2.2322 -1.5622 -12.1162 -4.6144 1.2152 40.2586 -2.0508 0.8861 16.5583 -0.0000 -0.0000 0.0000 -99.5683 -23.8243 82.8121 25.1044 -36.3105 -8.3516 -0.0000 0.0000 -49.9988 20.7380 63.0727 18.6534 -7.1250 0.0000 -0.0000 168.2116 5.0213 10.9507 -0.0000 -0.0000 0.0000 92.4146 15.8359 54.7568 -29.7074 40.6412 -11.2185 0.0000 -0.0000 -51.0608 -33.1149 -6.8329 4.4374 7.1250 -0.0000 -0.0000 -5.4494 -38.0696 -0.9332
-10.7109 18.0632 4.5261 -161.4120 85.6257 -141.9740 0.0000 0.0000 0.0000 -9.8680 -7.0843 -31.0603 1.0783 6.6004 18.5369 -0.2914 -11.5745 -2.7922 0.5222 -4.6314 -12.8603 0.0000 0.0000 0.0000 11.5697 4.1654 -30.0170 -1.9327 -8.7244 24.9368 0.0450 -8.8563 -11.7469 -0.1298 2.3223 -6.3971 -0.4997 1.4420 3.3274 4.5353 2.0110 5.5542 4.9903 0.9742 3.6956 2.0601 -1.5186 -12.0920 -4.6816 1.3546 40.1673 -2.0229 0.9088 16.5122 -0.0000 -0.0000 0.0000 -99.7319 -23.8609 82.7701 25.1370 -36.3436 -8.3709 -0.0000 0.0000 -50.0054 19.4758 62.8181 17.4629 -7.1250 0.0000 -0.0000 167.9064 4.6291 11.3388 -0.0000 -0.0000 0.0000 92.1194 15.8730 54.9504 -29.8135 40.7330 -11.2877 0.0000 -0.0000 -51.4052 -33.2747 -6.7739 4.4261 7.1250 -0.0000 -0.0000 -5.5859 -38.0117 -0.9647
-10.7112 18.0626 4.5252 -162.7420 85.4004 -143.3220 0.0000 0.0000 0.0000 -9.8592 -7.1981 -31.0409 1.0732 6.5852 18.4923 -0.3049 -11.7218 -2.6815 0.4905 -4.4904 -12.4606 0.0000 0.0000 0.0000 11.5776 4.0704 -29.9651 -1.9339 -8.7271 24.9454 0.0504 -8.9879 -11.8399 -0.1266 2.2933 -6.3169 -0.5095 1.4304 3.3091 4.6041 1.9964 5.5668 5.0696 0.9659 3.7183 1.9797 -1.4457 -12.1503 -4.6370 1.4747 40.1640 -1.9682 0.9525 16.5320 -0.0000 -0.0000 0.0000 -99.7076 -23.8713 82.7416 25.1627 -36.3698 -8.3862 -0.0000 0.0000 -50.0848 19.7339 62.7369 17.6859 -7.1250 0.0000 -0.0000 167.9987 4.5807 11.2593 -0.0000 -0.0000 0.0000 91.9950 15.8738 55.0104 -29.8785 40.7890 -11.3301 0.0000 -0.0000 -51.4020 -33.2049 -6.7838 4.4209 7.1250 -0.0000 -0.0000 -5.5258 -38.0183 -0.9534
-10.7101 18.0625 4.5217 -164.0870 85.1474 -144.6930 0.0000 0.0000 0.0000 -9.8459 -7.4085 -30.9957 1.0700 6.5759 18.4648 -0.3068 -11.7419 -2.6645 0.4854 -4.4674 -12.3955 0.0000 0.0000 0.0000 11.5529 4.0011 -29.8787 -1.9340 -8.7272 24.9455 0.0588 -9.1977 -11.9944 -0.1160 2.1962 -6.0483 -0.3878 1.4227 3.2797 4.5966 1.9876 5.5822 4.9943 0.9663 3.7555 2.0018 -1.4192 -12.2194 -4.5999 1.4928 40.1555 -1.9526 0.9681 16.5455 0.0000 0.0000 0.0000 -99.6287 -23.9041 82.7113 25.1762 -36.3835 -8.3942 -0.0000 0.0000 -49.9295 20.8356 62.8740 18.7119 -7.1250 0.0000 -0.0000 168.2849 4.8434 10.9197 0.0000 0.0000 0.0000 91.9893 15.8704 55.0381 -29.9008 40.8082 -11.3447 0.0000 -0.0000 -51.1542 -33.2280 -6.8151 4.4450 7.1250 -0.0000 -0.0000 -5.5465 -38.0570 -0.9517
